<svg width="34" height="34" viewBox="0 0 34 34" fill="none" xmlns="http://www.w3.org/2000/svg">
<path d="M5.61718 16.1678C13.0023 13.078 22.5593 9.31085 23.8785 8.78946C27.339 7.42478 28.4008 7.68631 27.8714 10.7085C27.4912 12.8807 26.3941 20.0723 25.5197 24.5486C25.0009 27.2031 23.8368 27.5177 22.0064 26.3693C21.1261 25.8166 16.6832 23.0224 15.7189 22.3664C14.8386 21.7684 13.6246 21.0492 15.1471 19.6325C15.6889 19.1279 19.2405 15.9029 22.0076 13.3926C22.3701 13.0629 21.9147 12.5214 21.4963 12.7857C17.7667 15.1378 12.5957 18.4025 11.9376 18.8278C10.9433 19.4699 9.98846 19.7644 8.27438 19.2961C6.97928 18.9424 5.71414 18.5205 5.22172 18.3595C3.32548 17.7403 3.77559 16.9384 5.61718 16.1678Z" fill="#2C2C2D"/>
</svg>
