<svg width="34" height="34" viewBox="0 0 34 34" fill="none" xmlns="http://www.w3.org/2000/svg">
<path d="M15.8221 9.38509C14.2743 9.37197 12.9624 9.39197 12.22 9.75401C11.7268 9.99537 11.346 10.5372 11.5795 10.5687C11.8654 10.6054 12.5115 10.7421 12.8605 11.2143C13.3038 11.8204 13.2909 13.1819 13.2909 13.1819C13.2909 13.1819 13.544 16.9268 12.6914 17.3938C12.1063 17.7139 11.3048 17.064 9.58114 14.0837C8.69704 12.5543 8.03371 10.8659 8.03371 10.8659C8.03371 10.8659 7.90328 10.547 7.67504 10.3791C7.39433 10.1745 7.0038 10.1076 7.0038 10.1076L2.88416 10.1281C2.88416 10.1281 2.26182 10.1294 2.03358 10.3996C1.83158 10.641 2.01821 11.117 2.01821 11.117C2.01821 11.117 5.24769 18.6444 8.90478 22.4563C12.2602 25.9507 16.0629 25.6331 16.0629 25.6331H17.7897C17.7897 25.6331 18.3138 25.6629 18.5788 25.3769C18.8228 25.1119 18.8145 24.7005 18.8145 24.7005C18.8145 24.7005 18.7816 22.3823 19.8546 22.0412C20.9145 21.7054 22.2727 24.2803 23.713 25.2693C24.7991 26.0196 25.6293 25.8586 25.6293 25.8586L29.4825 25.8073C29.4825 25.8073 31.4954 25.6807 30.5483 24.0857C30.4696 23.9545 29.9927 22.9113 27.684 20.7654C25.2652 18.5197 25.5893 18.8811 28.4987 14.9958C30.2722 12.6321 30.9814 11.1879 30.7584 10.5687C30.5459 9.97582 29.2417 10.1332 29.2417 10.1332L24.9068 10.1588C24.9068 10.1588 24.5819 10.1119 24.3432 10.2562C24.1097 10.3978 23.9589 10.7224 23.9589 10.7224C23.9589 10.7224 23.2733 12.5561 22.3551 14.1145C20.4269 17.4017 19.6546 17.5728 19.3371 17.3682C18.6026 16.896 18.7889 15.4629 18.7889 14.4424C18.7889 11.2575 19.268 9.92859 17.8461 9.58492C17.3738 9.46949 17.0289 9.3982 15.8221 9.38509Z" fill="#2C2C2D"/>
</svg>
