<svg width="69" height="71" viewBox="0 0 69 71" fill="none" xmlns="http://www.w3.org/2000/svg">
<rect width="68.2189" height="71" rx="34.1095" fill="#FF1521"/>
<path d="M31.6552 40.16C31.6552 39.12 31.8285 38.2133 32.1752 37.44C32.5218 36.6667 32.9485 35.9733 33.4552 35.36C33.9885 34.7467 34.5618 34.1867 35.1752 33.68C35.7885 33.1467 36.3618 32.6267 36.8952 32.12C37.4285 31.5867 37.8552 31.0267 38.1752 30.44C38.5218 29.8533 38.6952 29.1733 38.6952 28.4C38.6952 27.12 38.1885 26.08 37.1752 25.28C36.1618 24.48 34.7618 24.08 32.9752 24.08C31.3752 24.08 29.9885 24.3467 28.8152 24.88C27.6418 25.4133 26.6418 26.2 25.8152 27.24L22.8952 25.16C24.0152 23.7467 25.4418 22.6533 27.1752 21.88C28.9085 21.08 30.9352 20.68 33.2552 20.68C35.1752 20.68 36.8418 20.9733 38.2552 21.56C39.6685 22.12 40.7618 22.9333 41.5352 24C42.3352 25.04 42.7352 26.3067 42.7352 27.8C42.7352 28.92 42.5618 29.88 42.2152 30.68C41.8685 31.48 41.4285 32.1867 40.8952 32.8C40.3618 33.4133 39.7885 33.9867 39.1752 34.52C38.5885 35.0533 38.0285 35.5867 37.4952 36.12C36.9618 36.6533 36.5218 37.24 36.1752 37.88C35.8285 38.52 35.6552 39.28 35.6552 40.16H31.6552ZM33.6952 49.24C32.9485 49.24 32.3218 48.9867 31.8152 48.48C31.3352 47.9733 31.0952 47.3733 31.0952 46.68C31.0952 45.9333 31.3352 45.32 31.8152 44.84C32.3218 44.36 32.9485 44.12 33.6952 44.12C34.4418 44.12 35.0552 44.36 35.5352 44.84C36.0152 45.32 36.2552 45.9333 36.2552 46.68C36.2552 47.3733 36.0152 47.9733 35.5352 48.48C35.0552 48.9867 34.4418 49.24 33.6952 49.24Z" fill="white"/>
</svg>
